{"title":"Jack And Jill[2011]ENG[BRrip]Xvid-{RedDragon}","uid":7045979,"size":834792189,"categoryP":"video","categoryS":"movies","magnet":"?xt=urn:btih:f19a4806db2c34fa08a94d9b8fd853e323732399&amp;dn=Jack+And+Jill%5B2011%5DENG%5BBRrip%5DXvid-%7BRedDragon%7D&amp;tr=udp%3A%2F%2Ftracker.openbittorrent.com%3A80&amp;tr=udp%3A%2F%2Fopen.demonii.com%3A1337&amp;tr=udp%3A%2F%2Ftracker.coppersurfer.tk%3A6969&amp;tr=udp%3A%2F%2Fexodus.desync.com%3A6969","seeders":0,"leechers":0,"uploader":"RedDr4gon","files":7,"time":1329744714,"description":"Plot.\n\nJack Sadelstein (Adam Sandler) is a successful advertising executive in Los Angeles with a beautiful wife (Katie Holmes) and kids, who dreads one event each year: the Thanksgiving visit of his identical twin sister Jill (also Adam Sandler). Jill's neediness and passive-aggressiveness is maddening to Jack, turning his normally tranquil life upside down.\n\n\nGeneral.\n\nComplete name                    : Jack.And.Jill.[2011]ENG[BRrip]Xvid-{RedDragon}.avi\nFormat                           : MPEG-4\nFormat profile                   : Base Media / Version 2\nCodec ID                         : mp42\nFile size                        : 796 MiB\nDuration                         : 1h 30mn\nOverall bit rate                 : 1 227 Kbps\nIMDB Link                          : http://www.imdb.com/title/tt0810913/\nIMDB Rating                      : 3.0/10\n\n\nVideo.\n\nID                               : 1\nFormat                           : AVC\nFormat/Info                      : Advanced Video Codec\nFormat profile                   : &lt;a class=&quot;__cf_email__&quot; href=&quot;/cdn-cgi/l/email-protection&quot; data-cfemail=&quot;baf7dbd3d4faf689948a&quot;&gt;[email&amp;#160;protected]&lt;/a&gt;&lt;script cf-hash='f9e31' type=&quot;text/javascript&quot;&gt;\n/* &lt;![CDATA[ */!function(){try{var t=&quot;currentScript&quot;in document?document.currentScript:function(){for(var t=document.getElementsByTagName(&quot;script&quot;),e=t.length;e--;)if(t[e].getAttribute(&quot;cf-hash&quot;))return t[e]}();if(t&amp;&amp;t.previousSibling){var e,r,n,i,c=t.previousSibling,a=c.getAttribute(&quot;data-cfemail&quot;);if(a){for(e=&quot;&quot;,r=parseInt(a.substr(0,2),16),n=2;a.length-n;n+=2)i=parseInt(a.substr(n,2),16)^r,e+=String.fromCharCode(i);e=document.createTextNode(e),c.parentNode.replaceChild(e,c)}}}catch(u){}}();/* ]]&gt; */&lt;/script&gt;\nFormat settings, CABAC           : Yes\nFormat settings, ReFrames        : 4 frames\nFormat settings, GOP             : M=3, N=32\nCodec ID                         : avc1\nCodec ID/Info                    : Advanced Video Coding\nDuration                         : 1h 30mn\nBit rate mode                    : Variable\nBit rate                         : 1 092 Kbps\nWidth                            : 640 pixels\nHeight                           : 346 pixels\nDisplay aspect ratio             : 1.850\nFrame rate mode                  : Variable\nFrame rate                       : 23.976 fps\nMinimum frame rate               : 23.974 fps\nMaximum frame rate               : 238.727 fps\nColor space                      : YUV\nChroma subsampling               : 4:2:0\nBit depth                        : 8 bits\nScan type                        : Progressive\nBits/(Pixel*Frame)               : 0.206\nStream size                      : 689 MiB (87%)\nWriting library                  : x264 core 112\n\n\nAudio.\n\nID                               : 2\nFormat                           : AAC\nFormat/Info                      : Advanced Audio Codec\nFormat version                   : Version 4\nFormat profile                   : LC\nFormat settings, SBR             : No\nCodec ID                         : 40\nDuration                         : 1h 30mn\nBit rate mode                    : Variable\nBit rate                         : 160 Kbps\nMaximum bit rate                 : 242 Kbps\nChannel(s)                       : 2 channels\nChannel positions                : Front: L R\nSampling rate                    : 44.1 KHz\nStream size                      : 104 MiB (13%)\nEncoded date                     : UTC 2012-02-19 14:37:03\nTagged date                      : UTC 2012-02-19 15:11:23\n","torrent":{"xt":"urn:btih:f19a4806db2c34fa08a94d9b8fd853e323732399","amp;dn":"Jack+And+Jill%5B2011%5DENG%5BBRrip%5DXvid-%7BRedDragon%7D","amp;tr":["udp%3A%2F%2Ftracker.openbittorrent.com%3A80","udp%3A%2F%2Fopen.demonii.com%3A1337","udp%3A%2F%2Ftracker.coppersurfer.tk%3A6969","udp%3A%2F%2Fexodus.desync.com%3A6969"],"infoHash":"f19a4806db2c34fa08a94d9b8fd853e323732399","infoHashBuffer":{"type":"Buffer","data":[241,154,72,6,219,44,52,250,8,169,77,155,143,216,83,227,35,115,35,153]},"announce":[],"urlList":[]}}